{
  "accessors": [
    {
      "bufferView": 2,
      "componentType": 5126,
      "count": 200,
      "max": [
        1.7147990465164185,
        1.5379350185394287,
        1.0075490474700928
      ],
      "min": [
        -1.7147990465164185,
        0.1419530063867569,
        -1.0075490474700928
      ],
      "type": "VEC3"
    },
    {
      "bufferView": 2,
      "byteOffset": 2400,
      "componentType": 5126,
      "count": 200,
      "max": [
        0.9861246347427368,
        1.0,
        0.9966669082641602
      ],
      "min": [
        -0.9861246347427368,
        -0.99991774559021,
        -0.9966669082641602
      ],
      "type": "VEC3"
    },
    {
      "bufferView": 3,
      "componentType": 5126,
      "count": 200,
      "max": [
        0.9999669194221497,
        0.9817630648612976,
        0.48585230112075806,
        1.0
      ],
      "min": [
        -0.9999452829360962,
        -0.9941647052764893,
        -0.6158326864242554,
        1.0
      ],
      "type": "VEC4"
    },
    {
      "bufferView": 1,
      "componentType": 5126,
      "count": 200,
      "max": [
        0.8289260268211365,
        0.7337409853935242
      ],
      "min": [
        0.027538999915122986,
        0.026403000578284264
      ],
      "type": "VEC2"
    },
    {
      "bufferView": 0,
      "componentType": 5125,
      "count": 708,
      "type": "SCALAR"
    },
    {
      "bufferView": 2,
      "byteOffset": 4800,
      "componentType": 5126,
      "count": 576,
      "max": [
        1.2786259651184082,
        3.2276649475097656,
        1.2786259651184082
      ],
      "min": [
        -1.2786259651184082,
        2.801456928253174,
        -1.2786259651184082
      ],
      "type": "VEC3"
    },
    {
      "bufferView": 2,
      "byteOffset": 11712,
      "componentType": 5126,
      "count": 576,
      "max": [
        0.9351131319999695,
        0.9636122584342957,
        0.9351133704185486
      ],
      "min": [
        -0.9351131319999695,
        -0.9636116623878479,
        -0.9351133704185486
      ],
      "type": "VEC3"
    },
    {
      "bufferView": 3,
      "byteOffset": 3200,
      "componentType": 5126,
      "count": 576,
      "max": [
        0.9660506844520569,
        0.9680983424186707,
        0.9660791158676147,
        1.0
      ],
      "min": [
        -0.9660724997520447,
        -0.9680997133255005,
        -0.966072678565979,
        1.0
      ],
      "type": "VEC4"
    },
    {
      "bufferView": 1,
      "byteOffset": 1600,
      "componentType": 5126,
      "count": 576,
      "max": [
        0.9724609851837158,
        0.8179979920387268
      ],
      "min": [
        0.8283699750900269,
        0.13895800709724426
      ],
      "type": "VEC2"
    },
    {
      "bufferView": 0,
      "byteOffset": 2832,
      "componentType": 5125,
      "count": 864,
      "type": "SCALAR"
    },
    {
      "bufferView": 2,
      "byteOffset": 18624,
      "componentType": 5126,
      "count": 160,
      "max": [
        1.7068339586257935,
        3.0028469562530518,
        1.1342370510101318
      ],
      "min": [
        -1.7075140476226807,
        1.4400609731674194,
        -1.0646589994430542
      ],
      "type": "VEC3"
    },
    {
      "bufferView": 2,
      "byteOffset": 20544,
      "componentType": 5126,
      "count": 160,
      "max": [
        0.9831470251083374,
        0.40999099612236023,
        0.9987714886665344
      ],
      "min": [
        -0.983147144317627,
        -0.409991055727005,
        -0.9987714886665344
      ],
      "type": "VEC3"
    },
    {
      "bufferView": 3,
      "byteOffset": 12416,
      "componentType": 5126,
      "count": 160,
      "max": [
        0.9614755511283875,
        0.9002940654754639,
        0.842509388923645,
        1.0
      ],
      "min": [
        -0.9413880109786987,
        0.27192845940589905,
        -0.8259148001670837,
        1.0
      ],
      "type": "VEC4"
    },
    {
      "bufferView": 1,
      "byteOffset": 6208,
      "componentType": 5126,
      "count": 160,
      "max": [
        0.9359400272369385,
        0.8482450246810913
      ],
      "min": [
        0.08549399673938751,
        0.026410000398755074
      ],
      "type": "VEC2"
    },
    {
      "bufferView": 0,
      "byteOffset": 6288,
      "componentType": 5125,
      "count": 240,
      "type": "SCALAR"
    },
    {
      "bufferView": 2,
      "byteOffset": 22464,
      "componentType": 5126,
      "count": 1043,
      "max": [
        0.5081179738044739,
        4.373010158538818,
        0.4953779876232147
      ],
      "min": [
        -0.5081179738044739,
        2.772913932800293,
        -0.4953779876232147
      ],
      "type": "VEC3"
    },
    {
      "bufferView": 2,
      "byteOffset": 34980,
      "componentType": 5126,
      "count": 1043,
      "max": [
        1.0,
        1.0,
        0.9876884818077087
      ],
      "min": [
        -1.0,
        -1.0,
        -0.9876882433891296
      ],
      "type": "VEC3"
    },
    {
      "bufferView": 3,
      "byteOffset": 14976,
      "componentType": 5126,
      "count": 1043,
      "max": [
        0.9657391905784607,
        0.999977171421051,
        1.0,
        1.0
      ],
      "min": [
        -0.9851885437965393,
        -0.999977171421051,
        -0.9994733929634094,
        1.0
      ],
      "type": "VEC4"
    },
    {
      "bufferView": 1,
      "byteOffset": 7488,
      "componentType": 5126,
      "count": 1043,
      "max": [
        0.8352670073509216,
        0.8690530061721802
      ],
      "min": [
        0.027538999915122986,
        0.026419000700116158
      ],
      "type": "VEC2"
    },
    {
      "bufferView": 0,
      "byteOffset": 7248,
      "componentType": 5125,
      "count": 4368,
      "type": "SCALAR"
    },
    {
      "bufferView": 2,
      "byteOffset": 47496,
      "componentType": 5126,
      "count": 96,
      "max": [
        0.8954319953918457,
        3.100429058074951,
        0.8866509795188904
      ],
      "min": [
        -0.839011013507843,
        2.960329055786133,
        -0.8866509795188904
      ],
      "type": "VEC3"
    },
    {
      "bufferView": 2,
      "byteOffset": 48648,
      "componentType": 5126,
      "count": 96,
      "max": [
        0.9999947547912598,
        1.0,
        0.9999947547912598
      ],
      "min": [
        -0.9999947547912598,
        -1.0,
        -0.9999947547912598
      ],
      "type": "VEC3"
    },
    {
      "bufferView": 3,
      "byteOffset": 31664,
      "componentType": 5126,
      "count": 96,
      "max": [
        0.9999948143959045,
        0.19195382297039032,
        0.9938179850578308,
        1.0
      ],
      "min": [
        -0.9981191754341125,
        0.0,
        -0.9999947547912598,
        1.0
      ],
      "type": "VEC4"
    },
    {
      "bufferView": 1,
      "byteOffset": 15832,
      "componentType": 5126,
      "count": 96,
      "max": [
        0.9372450113296509,
        0.9323530197143555
      ],
      "min": [
        0.027538999915122986,
        0.026419999077916145
      ],
      "type": "VEC2"
    },
    {
      "bufferView": 0,
      "byteOffset": 24720,
      "componentType": 5125,
      "count": 144,
      "type": "SCALAR"
    },
    {
      "bufferView": 2,
      "byteOffset": 49800,
      "componentType": 5126,
      "count": 21,
      "max": [
        1.385725975036621,
        20.63302230834961,
        1.385725975036621
      ],
      "min": [
        -1.385725975036621,
        20.63302230834961,
        -1.385725975036621
      ],
      "type": "VEC3"
    },
    {
      "bufferView": 2,
      "byteOffset": 50052,
      "componentType": 5126,
      "count": 21,
      "max": [
        0.0,
        -1.0,
        3.000000106112566e-06
      ],
      "min": [
        0.0,
        -1.0,
        -3.000000106112566e-06
      ],
      "type": "VEC3"
    },
    {
      "bufferView": 3,
      "byteOffset": 33200,
      "componentType": 5126,
      "count": 21,
      "max": [
        1.0,
        6.158944881873296e-11,
        2.1300744265317917e-05,
        1.0
      ],
      "min": [
        1.0,
        -3.33985131217851e-11,
        -2.1190464394749142e-05,
        1.0
      ],
      "type": "VEC4"
    },
    {
      "bufferView": 1,
      "byteOffset": 16600,
      "componentType": 5126,
      "count": 21,
      "max": [
        0.7515289783477783,
        0.6737639904022217
      ],
      "min": [
        0.6822500228881836,
        0.6044849753379822
      ],
      "type": "VEC2"
    },
    {
      "bufferView": 0,
      "byteOffset": 25296,
      "componentType": 5125,
      "count": 60,
      "type": "SCALAR"
    },
    {
      "bufferView": 2,
      "byteOffset": 50304,
      "componentType": 5126,
      "count": 1158,
      "max": [
        7.917418003082275,
        21.077409744262695,
        7.890524864196777
      ],
      "min": [
        -7.917418003082275,
        4.5068039894104,
        -7.890529155731201
      ],
      "type": "VEC3"
    },
    {
      "bufferView": 2,
      "byteOffset": 64200,
      "componentType": 5126,
      "count": 1158,
      "max": [
        0.9962048530578613,
        1.0,
        0.9962008595466614
      ],
      "min": [
        -0.9962048530578613,
        -0.8000369071960449,
        -0.9962007403373718
      ],
      "type": "VEC3"
    },
    {
      "bufferView": 3,
      "byteOffset": 33536,
      "componentType": 5126,
      "count": 1158,
      "max": [
        0.9990781545639038,
        0.951934278011322,
        0.9998748302459717,
        1.0
      ],
      "min": [
        -0.998988151550293,
        -0.9965284466743469,
        -0.9998744130134583,
        1.0
      ],
      "type": "VEC4"
    },
    {
      "bufferView": 1,
      "byteOffset": 16768,
      "componentType": 5126,
      "count": 1158,
      "max": [
        0.9292610287666321,
        0.9851199984550476
      ],
      "min": [
        0.06172500178217888,
        0.004242999944835901
      ],
      "type": "VEC2"
    },
    {
      "bufferView": 0,
      "byteOffset": 25536,
      "componentType": 5125,
      "count": 4620,
      "type": "SCALAR"
    },
    {
      "bufferView": 2,
      "byteOffset": 78096,
      "componentType": 5126,
      "count": 2090,
      "max": [
        8.291436195373535,
        20.89351463317871,
        8.083552360534668
      ],
      "min": [
        -8.291435241699219,
        2.985797882080078,
        -8.08498764038086
      ],
      "type": "VEC3"
    },
    {
      "bufferView": 2,
      "byteOffset": 103176,
      "componentType": 5126,
      "count": 2090,
      "max": [
        1.0,
        0.981489360332489,
        1.0
      ],
      "min": [
        -1.0,
        -0.9814895987510681,
        -1.0
      ],
      "type": "VEC3"
    },
    {
      "bufferView": 3,
      "byteOffset": 52064,
      "componentType": 5126,
      "count": 2090,
      "max": [
        0.9993733763694763,
        0.9999939799308777,
        0.999885082244873,
        1.0
      ],
      "min": [
        -0.9993407130241394,
        -0.9993354678153992,
        -0.9996643662452698,
        -1.0
      ],
      "type": "VEC4"
    },
    {
      "bufferView": 1,
      "byteOffset": 26032,
      "componentType": 5126,
      "count": 2090,
      "max": [
        0.9780139923095703,
        0.9589130282402039
      ],
      "min": [
        0.9390199780464172,
        0.18251299858093262
      ],
      "type": "VEC2"
    },
    {
      "bufferView": 0,
      "byteOffset": 44016,
      "componentType": 5125,
      "count": 5136,
      "type": "SCALAR"
    }
  ],
  "asset": {
    "extras": {
      "author": "oliverjones5124 (https://sketchfab.com/oliverjones5124)",
      "license": "CC-BY-4.0 (http://creativecommons.org/licenses/by/4.0/)",
      "source": "https://sketchfab.com/3d-models/hot-air-balloon-modeled-and-textured-36f83cf4fab44312bd1a47efb6031987",
      "title": "Hot Air Balloon - Modeled and Textured"
    },
    "generator": "Sketchfab-12.67.0",
    "version": "2.0"
  },
  "bufferViews": [
    {
      "buffer": 0,
      "byteLength": 64560,
      "name": "floatBufferViews",
      "target": 34963
    },
    {
      "buffer": 0,
      "byteLength": 42752,
      "byteOffset": 64560,
      "byteStride": 8,
      "name": "floatBufferViews",
      "target": 34962
    },
    {
      "buffer": 0,
      "byteLength": 128256,
      "byteOffset": 107312,
      "byteStride": 12,
      "name": "floatBufferViews",
      "target": 34962
    },
    {
      "buffer": 0,
      "byteLength": 85504,
      "byteOffset": 235568,
      "byteStride": 16,
      "name": "floatBufferViews",
      "target": 34962
    }
  ],
  "buffers": [
    {
      "byteLength": 321072,
      "uri": "scene.bin"
    }
  ],
  "images": [
    {
      "uri": "textures/basket_mat_uv_baseColor.jpeg"
    },
    {
      "uri": "textures/basket_mat_uv_metallicRoughness.png"
    },
    {
      "uri": "textures/basket_mat_uv_normal.png"
    },
    {
      "uri": "textures/balloon_mat_uv_baseColor.jpeg"
    },
    {
      "uri": "textures/balloon_mat_uv_metallicRoughness.png"
    },
    {
      "uri": "textures/balloon_mat_uv_normal.png"
    }
  ],
  "materials": [
    {
      "doubleSided": true,
      "name": "basket_mat_uv",
      "normalTexture": {
        "index": 2
      },
      "pbrMetallicRoughness": {
        "baseColorTexture": {
          "index": 0
        },
        "metallicRoughnessTexture": {
          "index": 1
        }
      }
    },
    {
      "doubleSided": true,
      "name": "balloon_mat_uv",
      "normalTexture": {
        "index": 5
      },
      "pbrMetallicRoughness": {
        "baseColorTexture": {
          "index": 3
        },
        "metallicRoughnessTexture": {
          "index": 4
        }
      }
    }
  ],
  "meshes": [
    {
      "name": "defaultMaterial",
      "primitives": [
        {
          "attributes": {
            "NORMAL": 1,
            "POSITION": 0,
            "TANGENT": 2,
            "TEXCOORD_0": 3
          },
          "indices": 4,
          "material": 0,
          "mode": 4
        }
      ]
    },
    {
      "name": "defaultMaterial",
      "primitives": [
        {
          "attributes": {
            "NORMAL": 6,
            "POSITION": 5,
            "TANGENT": 7,
            "TEXCOORD_0": 8
          },
          "indices": 9,
          "material": 0,
          "mode": 4
        }
      ]
    },
    {
      "name": "defaultMaterial",
      "primitives": [
        {
          "attributes": {
            "NORMAL": 11,
            "POSITION": 10,
            "TANGENT": 12,
            "TEXCOORD_0": 13
          },
          "indices": 14,
          "material": 0,
          "mode": 4
        }
      ]
    },
    {
      "name": "defaultMaterial",
      "primitives": [
        {
          "attributes": {
            "NORMAL": 16,
            "POSITION": 15,
            "TANGENT": 17,
            "TEXCOORD_0": 18
          },
          "indices": 19,
          "material": 0,
          "mode": 4
        }
      ]
    },
    {
      "name": "defaultMaterial",
      "primitives": [
        {
          "attributes": {
            "NORMAL": 21,
            "POSITION": 20,
            "TANGENT": 22,
            "TEXCOORD_0": 23
          },
          "indices": 24,
          "material": 0,
          "mode": 4
        }
      ]
    },
    {
      "name": "defaultMaterial",
      "primitives": [
        {
          "attributes": {
            "NORMAL": 26,
            "POSITION": 25,
            "TANGENT": 27,
            "TEXCOORD_0": 28
          },
          "indices": 29,
          "material": 1,
          "mode": 4
        }
      ]
    },
    {
      "name": "defaultMaterial",
      "primitives": [
        {
          "attributes": {
            "NORMAL": 31,
            "POSITION": 30,
            "TANGENT": 32,
            "TEXCOORD_0": 33
          },
          "indices": 34,
          "material": 1,
          "mode": 4
        }
      ]
    },
    {
      "name": "defaultMaterial",
      "primitives": [
        {
          "attributes": {
            "NORMAL": 36,
            "POSITION": 35,
            "TANGENT": 37,
            "TEXCOORD_0": 38
          },
          "indices": 39,
          "material": 1,
          "mode": 4
        }
      ]
    }
  ],
  "nodes": [
    {
      "children": [
        1
      ],
      "matrix": [
        1.0,
        0.0,
        0.0,
        0.0,
        0.0,
        2.220446049250313e-16,
        -1.0,
        0.0,
        0.0,
        1.0,
        2.220446049250313e-16,
        0.0,
        0.0,
        0.0,
        0.0,
        1.0
      ],
      "name": "Sketchfab_model"
    },
    {
      "children": [
        2
      ],
      "matrix": [
        1.0,
        0.0,
        0.0,
        0.0,
        0.0,
        -4.371139006309477e-08,
        0.999999999999999,
        0.0,
        0.0,
        -0.999999999999999,
        -4.371139006309477e-08,
        0.0,
        0.0,
        0.0,
        0.0,
        1.0
      ],
      "name": "Collada visual scene group"
    },
    {
      "children": [
        3,
        16
      ],
      "name": "hotairballoon_low"
    },
    {
      "children": [
        4,
        6,
        11
      ],
      "name": "Basket_low"
    },
    {
      "children": [
        5
      ],
      "name": "basket_low"
    },
    {
      "mesh": 0,
      "name": "defaultMaterial"
    },
    {
      "children": [
        7,
        9
      ],
      "name": "Rope_Basket_low"
    },
    {
      "children": [
        8
      ],
      "name": "connectingring_low"
    },
    {
      "mesh": 1,
      "name": "defaultMaterial"
    },
    {
      "children": [
        10
      ],
      "name": "rope_low"
    },
    {
      "mesh": 2,
      "name": "defaultMaterial"
    },
    {
      "children": [
        12,
        14
      ],
      "name": "burner_low"
    },
    {
      "children": [
        13
      ],
      "name": "burner_low"
    },
    {
      "mesh": 3,
      "name": "defaultMaterial"
    },
    {
      "children": [
        15
      ],
      "name": "wood_low"
    },
    {
      "mesh": 4,
      "name": "defaultMaterial"
    },
    {
      "children": [
        17,
        19,
        21
      ],
      "name": "Balloon_low"
    },
    {
      "children": [
        18
      ],
      "name": "Ballon_cover_low"
    },
    {
      "mesh": 5,
      "name": "defaultMaterial"
    },
    {
      "children": [
        20
      ],
      "name": "Balloon_low"
    },
    {
      "mesh": 6,
      "name": "defaultMaterial"
    },
    {
      "children": [
        22
      ],
      "name": "Rope_Balloon_low"
    },
    {
      "children": [
        23
      ],
      "name": "ropearoundballoon_low"
    },
    {
      "mesh": 7,
      "name": "defaultMaterial"
    }
  ],
  "samplers": [
    {
      "magFilter": 9729,
      "minFilter": 9987,
      "wrapS": 10497,
      "wrapT": 10497
    }
  ],
  "scene": 0,
  "scenes": [
    {
      "name": "Sketchfab_Scene",
      "nodes": [
        0
      ]
    }
  ],
  "textures": [
    {
      "sampler": 0,
      "source": 0
    },
    {
      "sampler": 0,
      "source": 1
    },
    {
      "sampler": 0,
      "source": 2
    },
    {
      "sampler": 0,
      "source": 3
    },
    {
      "sampler": 0,
      "source": 4
    },
    {
      "sampler": 0,
      "source": 5
    }
  ]
}
